<svg xmlns="http://www.w3.org/2000/svg" xmlns:xlink="http://www.w3.org/1999/xlink" version="1.1" id="Ebene_1" x="0px" y="0px" width="100.0px" height="100px" viewBox="0 0 512 512" enable-background="new 0 0 512 512" xml:space="preserve">
<g>
	<path d="M96,176c8.822,0,16,7.178,16,16s-7.178,16-16,16s-16-7.178-16-16S87.178,176,96,176 M96,160c-17.673,0-32,14.327-32,32   s14.327,32,32,32s32-14.327,32-32S113.673,160,96,160L96,160z"/>
</g>
<g>
	<path d="M416,176c8.822,0,16,7.178,16,16s-7.178,16-16,16s-16-7.178-16-16S407.178,176,416,176 M416,160c-17.673,0-32,14.327-32,32   s14.327,32,32,32s32-14.327,32-32S433.673,160,416,160L416,160z"/>
</g>
<g>
	<path d="M256,336c8.822,0,16,7.178,16,16s-7.178,16-16,16s-16-7.178-16-16S247.178,336,256,336 M256,320c-17.673,0-32,14.327-32,32   s14.327,32,32,32s32-14.327,32-32S273.673,320,256,320L256,320z"/>
</g>
<g>
	<rect x="108.118" y="264" transform="matrix(0.7071 0.7071 -0.7071 0.7071 243.8822 -44.7838)" width="135.764" height="16"/>
</g>
<g>
	<rect x="328" y="204.118" transform="matrix(0.7071 0.7071 -0.7071 0.7071 290.7266 -157.919)" width="16" height="135.764"/>
</g>
</svg>