<svg xmlns="http://www.w3.org/2000/svg" xmlns:xlink="http://www.w3.org/1999/xlink" version="1.1" id="Layer_1" x="0px" y="0px" width="100px" height="100px" viewBox="0 0 100 100" enable-background="new 0 0 100 100" xml:space="preserve">
<path fill="#000000" d="M83.394,13.946C83.166,13.375,82.614,13,82,13H19c-0.593,0-1.13,0.349-1.371,0.891l-9.5,21.365  C8.044,35.448,8,35.655,8,35.865v1.093c0,5.334,3.901,9.954,9,11.251V74c0,7.458,6.542,14,14,14h4.5h28H70c7.168,0,13-6.28,13-14  V48.337c5.201-1.088,9-5.695,9-11.379v-1.089c0-0.19-0.036-0.378-0.106-0.554L83.394,13.946z M88.54,35H72.304l-4.524-19h13.203  L88.54,35z M49,16v19H31.78l4.524-19H49z M64.696,16l4.524,19H52V16H64.696z M48.967,37c-0.023,4.736-3.875,8.583-8.607,8.583  c-4.737,0-8.592-3.847-8.615-8.583H48.967z M69.123,37c-0.023,4.736-3.854,8.583-8.561,8.583c-4.725,0-8.568-3.847-8.592-8.583  H69.123z M19.975,16H33.22l-4.524,19h-17.17L19.975,16z M11.002,37H28.74c-0.024,4.657-4.075,8.583-8.869,8.583  c-0.233,0-0.463-0.017-0.692-0.035c-0.059-0.003-0.129-0.007-0.201-0.011C14.584,45.087,11.025,41.364,11.002,37z M37,85V65.996  C37,62.564,40.656,60,43.926,60h12.148C59.453,60,62,62.578,62,65.996V85H37z M80,74c0,6.065-4.486,11-10,11h-5V65.996  C65,60.951,61.079,57,56.074,57H43.926C39.231,57,34,60.694,34,65.996V85h-3c-5.757,0-11-5.243-11-11V48.583  c0.03,0,0.059-0.006,0.089-0.007c0.496-0.009,0.985-0.047,1.467-0.117c0.039-0.005,0.076-0.014,0.114-0.02  c0.485-0.076,0.961-0.178,1.426-0.312c0.032-0.009,0.062-0.021,0.093-0.03c0.469-0.139,0.927-0.304,1.372-0.497  c0.025-0.011,0.049-0.023,0.074-0.035c0.448-0.198,0.882-0.421,1.3-0.671c0.019-0.011,0.036-0.023,0.054-0.035  c0.421-0.255,0.827-0.533,1.213-0.835c0.012-0.01,0.023-0.02,0.036-0.03c0.389-0.307,0.76-0.636,1.108-0.987  c0.007-0.007,0.013-0.015,0.02-0.021c0.351-0.355,0.681-0.731,0.984-1.127c0.003-0.004,0.006-0.008,0.009-0.012  c0.306-0.4,0.588-0.818,0.841-1.253c1.985,3.569,5.795,5.989,10.159,5.989c4.329,0,8.113-2.385,10.108-5.912  c1.993,3.527,5.771,5.912,10.095,5.912c4.305,0,8.068-2.378,10.059-5.896c0.241,0.429,0.511,0.84,0.803,1.233  c0.098,0.131,0.211,0.248,0.313,0.375c0.205,0.253,0.407,0.507,0.633,0.742c0.136,0.141,0.285,0.266,0.427,0.399  c0.213,0.201,0.423,0.405,0.65,0.589c0.162,0.131,0.336,0.245,0.505,0.367c0.227,0.165,0.45,0.331,0.688,0.479  c0.185,0.114,0.379,0.21,0.569,0.314c0.239,0.13,0.479,0.262,0.728,0.375c0.203,0.092,0.414,0.167,0.623,0.248  c0.252,0.097,0.504,0.194,0.766,0.273c0.218,0.066,0.441,0.117,0.664,0.17c0.266,0.063,0.53,0.124,0.803,0.168  c0.229,0.038,0.463,0.061,0.697,0.084c0.172,0.017,0.337,0.052,0.51,0.061V74z M81.584,45.525c-0.029-0.001-0.056-0.008-0.084-0.008  c-0.092,0-0.178,0.02-0.264,0.035c-0.203,0.014-0.404,0.031-0.611,0.031c-4.752,0-8.477-3.767-8.498-8.583h16.871  C88.979,41.481,85.799,45.051,81.584,45.525z"/>
</svg>