<svg xmlns="http://www.w3.org/2000/svg" xmlns:xlink="http://www.w3.org/1999/xlink" version="1.1" id="Layer_1" x="0px" y="0px" width="100px" height="100px" viewBox="0 0 100 100" enable-background="new 0 0 100 100" xml:space="preserve">
<g>
	<path d="M92.24,52.76C92.24,76.052,73.292,95,50,95C26.708,95,7.76,76.052,7.76,52.76c0-2.229,0.177-4.465,0.518-6.645   c0.128-0.774,0.859-1.306,1.626-1.179c0.774,0.121,1.306,0.845,1.179,1.619c-0.319,2.038-0.483,4.125-0.483,6.205   C10.599,74.491,28.276,92.16,50,92.16c21.723,0,39.401-17.67,39.401-39.401c0-20.509-15.76-37.42-35.808-39.237l2.932,2.939   c0.554,0.554,0.554,1.455,0,2.009c-0.277,0.277-0.639,0.412-1.001,0.412c-0.362,0-0.731-0.135-1.008-0.412l-5.516-5.523   c-0.05-0.05-0.099-0.099-0.135-0.156c-0.036-0.042-0.071-0.092-0.092-0.149c-0.036-0.057-0.064-0.114-0.092-0.177   c-0.036-0.078-0.057-0.156-0.071-0.234c0-0.007,0-0.014,0-0.014c-0.021-0.092-0.028-0.185-0.028-0.277   c0-0.092,0.007-0.185,0.028-0.27c0-0.007,0-0.014,0-0.014c0.014-0.085,0.043-0.17,0.078-0.249c0.021-0.057,0.05-0.114,0.085-0.17   c0.014-0.028,0.036-0.057,0.057-0.092c0-0.007,0.007-0.014,0.014-0.021c0.043-0.064,0.099-0.128,0.156-0.185l5.516-5.523   c0.554-0.554,1.455-0.554,2.009,0c0.554,0.554,0.554,1.455,0,2.009l-3.223,3.223C75.06,12.337,92.24,30.582,92.24,52.76z"/>
</g>
<g>
	<path d="M76.991,36.162c-0.05-0.085-0.099-0.163-0.156-0.249c0.036,0.043,0.071,0.085,0.099,0.135   C76.955,36.084,76.977,36.126,76.991,36.162z"/>
</g>
<g>
	<path d="M22.732,68.903c-0.036-0.05-0.071-0.099-0.099-0.149c-0.014-0.021-0.028-0.043-0.036-0.071   C22.64,68.754,22.689,68.832,22.732,68.903z"/>
	<path d="M76.991,36.162c-0.05-0.085-0.099-0.163-0.156-0.249c0-0.007-0.007-0.014-0.007-0.014   C71.212,26.997,61.281,21.069,50,21.069c-15.782,0-28.908,11.593-31.3,26.707c-0.263,1.626-0.398,3.287-0.398,4.984   c0,0.838,0.036,1.675,0.099,2.499c0,0.007,0,0.007,0,0.007c0.036,0.426,0.071,0.845,0.128,1.264   c0.518,4.387,1.938,8.498,4.068,12.154c0.043,0.071,0.092,0.149,0.135,0.22c0,0,0.007,0.007,0.007,0.014   c4.224,7.106,11.153,12.424,19.345,14.539c0.021,0.007,0.043,0.014,0.071,0.021c0.057,0.014,0.114,0.021,0.17,0.036   c2.456,0.618,5.026,0.944,7.674,0.944c17.478,0,31.698-14.22,31.698-31.698C81.698,46.683,79.973,40.996,76.991,36.162z M50,23.909   c9.825,0,18.522,4.934,23.733,12.459l-7.617,4.728c-3.614-4.991-9.492-8.242-16.115-8.242c-9.421,0-17.336,6.581-19.381,15.384   l-8.86-1.42C24.507,33.748,36.128,23.909,50,23.909z M33.019,54.457c0-0.007,0-0.021-0.007-0.028   c-0.05-0.554-0.078-1.108-0.078-1.668c0-0.916,0.071-1.81,0.213-2.684C34.438,41.941,41.502,35.693,50,35.693   c6.112,0,11.486,3.23,14.504,8.072c1.626,2.612,2.563,5.701,2.563,8.995c0,9.414-7.653,17.066-17.066,17.066   c-8.817,0-16.087-6.709-16.974-15.292C33.026,54.506,33.019,54.485,33.019,54.457z M21.142,52.76c0-1.058,0.057-2.101,0.17-3.131   l8.867,1.413c-0.057,0.561-0.085,1.136-0.085,1.718c0,0.192,0,0.376,0.014,0.561l-8.931,0.887   C21.156,53.725,21.142,53.242,21.142,52.76z M21.461,57.034l8.924-0.887c0.327,1.91,0.923,3.72,1.761,5.403L24.4,66.071   C22.952,63.295,21.937,60.249,21.461,57.034z M41.495,80.34c-6.489-2.002-12.005-6.24-15.654-11.813l7.745-4.522   c2.428,3.542,5.97,6.254,10.123,7.639L41.495,80.34z M50,81.618c-1.974,0-3.898-0.199-5.758-0.582l2.222-8.689   c1.15,0.213,2.329,0.319,3.536,0.319c10.975,0,19.906-8.924,19.906-19.906c0-3.337-0.823-6.481-2.293-9.25l7.625-4.735   c2.307,4.146,3.621,8.917,3.621,13.985C78.858,68.676,65.909,81.618,50,81.618z"/>
</g>
<g>
	<path d="M18.529,56.53c-0.121-0.177-0.199-0.383-0.22-0.611c-0.021-0.227,0.007-0.447,0.092-0.653   C18.437,55.692,18.472,56.111,18.529,56.53z"/>
</g>
</svg>