<svg xmlns="http://www.w3.org/2000/svg" xmlns:xlink="http://www.w3.org/1999/xlink" version="1.1" id="Capa_1" x="0px" y="0px" width="100px" height="100px" viewBox="0 0 100 100" enable-background="new 0 0 100 100" xml:space="preserve">
<path d="M94.552,38.11l-10.27-13.512c-0.375-0.493-0.941-0.799-1.556-0.855c-0.018-0.002-0.035-0.008-0.053-0.009  c-0.048-0.003-0.095-0.005-0.143-0.005c-0.378,0-0.743,0.107-1.068,0.289V10.311c0-1.345-1.095-2.44-2.44-2.44h-43.67  c-0.652,0-1.264,0.254-1.725,0.715L18.193,24.022c-0.461,0.461-0.715,1.073-0.715,1.725v13.669l-1.813,1.813  c-0.145,0.144-0.274,0.306-0.376,0.489L5.282,59.614c-0.383,0.686-0.375,1.523,0.023,2.201c0.397,0.678,1.124,1.094,1.91,1.094  h8.035v27.907c0,0.725,0.587,1.312,1.312,1.312h48.629c0.171,0,0.341-0.035,0.502-0.101c0.161-0.067,0.307-0.163,0.428-0.285  l17.186-17.186c0.247-0.247,0.385-0.58,0.385-0.928V51.786l10.674-10.799C95.135,40.208,95.214,38.982,94.552,38.11z M35.353,10.127  h42.201L64.137,25.184H20.221L35.353,10.127z M63.514,27.439v13.145H19.735l0.046-13.145H63.514z M63.878,89.504H17.874V62.909  h39.96c0.941,0,1.779-0.594,2.09-1.482l3.954-11.287V89.504z M63.858,43.5l-6.024,17.195h-39.96h-2.625H7.214l8.035-14.37  l1.972-3.527h46.883L63.858,43.5z M65.769,39.797V26.741l13.438-15.081v15.034h0.063L65.769,39.797z M81.066,73.085L66.503,87.648  V44.674l10.153,10.963c0.408,0.44,0.978,0.695,1.578,0.705c0.012,0,0.024,0,0.036,0c0.587,0,1.151-0.235,1.564-0.653l1.232-1.246  V73.085z M78.27,54.142L67.125,42.108l-0.283-0.306l15.689-15.874l1.16,1.526L92.8,39.441L78.27,54.142z"/>
</svg>