<svg xmlns="http://www.w3.org/2000/svg" xmlns:xlink="http://www.w3.org/1999/xlink" version="1.0" id="Your_Icon" x="0px" y="0px" viewBox="0 0 100 100" enable-background="new 0 0 100 100" xml:space="preserve" height="100px" width="100px">
<g>
	<path fill="#000000" d="M92,30H7c-0.552,0-1-0.448-1-1v-8c0-0.552,0.448-1,1-1h85c0.553,0,1,0.448,1,1v8C93,29.552,92.553,30,92,30   z M8,28h83v-6H8V28z"/>
</g>
<g>
	<path fill="#000000" d="M92,81H7c-0.552,0-1-0.447-1-1V29c0-0.552,0.448-1,1-1h85c0.553,0,1,0.448,1,1v51   C93,80.553,92.553,81,92,81z M8,79h83V30H8V79z"/>
</g>
<g>
	<circle fill="#000000" cx="79.75" cy="25" r="1.5"/>
</g>
<g>
	<circle fill="#000000" cx="83.75" cy="25" r="1.5"/>
</g>
<g>
	<circle fill="#000000" cx="87.75" cy="25" r="1.5"/>
</g>
<g>
	<path fill="#000000" d="M26,81H7c-0.552,0-1-0.447-1-1V29c0-0.552,0.448-1,1-1h19c0.552,0,1,0.448,1,1v51   C27,80.553,26.552,81,26,81z M8,79h17V30H8V79z"/>
</g>
<g>
	<path fill="#000000" d="M20,44h-8c-0.552,0-1-0.448-1-1v-7c0-0.552,0.448-1,1-1h8c0.552,0,1,0.448,1,1v7C21,43.552,20.552,44,20,44   z M13,42h6v-5h-6V42z"/>
</g>
<g>
	<path fill="#000000" d="M20,57h-8c-0.552,0-1-0.447-1-1v-7c0-0.552,0.448-1,1-1h8c0.552,0,1,0.448,1,1v7C21,56.553,20.552,57,20,57   z M13,55h6v-5h-6V55z"/>
</g>
<g>
	<path fill="#000000" d="M20,70h-8c-0.552,0-1-0.447-1-1v-7c0-0.553,0.448-1,1-1h8c0.552,0,1,0.447,1,1v7C21,69.553,20.552,70,20,70   z M13,68h6v-5h-6V68z"/>
</g>
<g>
	<path fill="#000000" d="M85,50H34c-0.552,0-1-0.448-1-1V36c0-0.552,0.448-1,1-1h51c0.553,0,1,0.448,1,1v13   C86,49.552,85.553,50,85,50z M35,48h49V37H35V48z"/>
</g>
<g>
	<path fill="#000000" d="M85,70H34c-0.552,0-1-0.447-1-1V56c0-0.553,0.448-1,1-1h51c0.553,0,1,0.447,1,1v13   C86,69.553,85.553,70,85,70z M35,68h49V57H35V68z"/>
</g>
<g>
	<path fill="#000000" d="M64,44H43c-0.552,0-1-0.448-1-1s0.448-1,1-1h21c0.553,0,1,0.448,1,1S64.553,44,64,44z"/>
</g>
<g>
	<path fill="#000000" d="M74,44h-4c-0.553,0-1-0.448-1-1s0.447-1,1-1h4c0.553,0,1,0.448,1,1S74.553,44,74,44z"/>
</g>
<g>
	<path fill="#000000" d="M62,64H41c-0.552,0-1-0.447-1-1s0.448-1,1-1h21c0.553,0,1,0.447,1,1S62.553,64,62,64z"/>
</g>
<g>
	<path fill="#000000" d="M72,64h-4c-0.553,0-1-0.447-1-1s0.447-1,1-1h4c0.553,0,1,0.447,1,1S72.553,64,72,64z"/>
</g>
</svg>