<svg xmlns="http://www.w3.org/2000/svg" xmlns:xlink="http://www.w3.org/1999/xlink" version="1.0" id="Your_Icon" x="0px" y="0px" viewBox="0 0 100 100" enable-background="new 0 0 100 100" xml:space="preserve" height="100px" width="100px">
<g>
	<g>
		<g>
			<g>
			</g>
		</g>
		<g>
		</g>
	</g>
</g>
<g>
	<path fill="#000000" d="M87,86H15c-0.552,0-1-0.447-1-1V15c0-0.552,0.448-1,1-1h57.283c0.258,0,0.507,0.1,0.692,0.279   l14.717,14.138C87.889,28.605,88,28.866,88,29.138V85C88,85.553,87.553,86,87,86z M16,84h70V29.563L71.881,16H16V84z"/>
</g>
<g>
	<path fill="#000000" d="M72,86H28c-0.552,0-1-0.447-1-1V45c0-0.552,0.448-1,1-1h44c0.553,0,1,0.448,1,1v40   C73,85.553,72.553,86,72,86z M29,84h42V46H29V84z"/>
</g>
<g>
	<path fill="#000000" d="M61,34h-7c-0.553,0-1-0.448-1-1V19c0-0.552,0.447-1,1-1h7c0.553,0,1,0.448,1,1v14   C62,33.552,61.553,34,61,34z M55,32h5V20h-5V32z"/>
</g>
<g>
	<path fill="#000000" d="M65,40H35c-0.552,0-1-0.448-1-1V15c0-0.552,0.448-1,1-1h30c0.553,0,1,0.448,1,1v24   C66,39.552,65.553,40,65,40z M36,38h28V16H36V38z"/>
</g>
<g>
	<path fill="#000000" d="M64,58H35c-0.552,0-1-0.447-1-1s0.448-1,1-1h29c0.553,0,1,0.447,1,1S64.553,58,64,58z"/>
</g>
<g>
	<path fill="#000000" d="M64,63H51c-0.552,0-1-0.447-1-1s0.448-1,1-1h13c0.553,0,1,0.447,1,1S64.553,63,64,63z"/>
</g>
<g>
	<path fill="#000000" d="M45,63H35c-0.552,0-1-0.447-1-1s0.448-1,1-1h10c0.552,0,1,0.447,1,1S45.552,63,45,63z"/>
</g>
<g>
	<path fill="#000000" d="M64,68H35c-0.552,0-1-0.447-1-1s0.448-1,1-1h29c0.553,0,1,0.447,1,1S64.553,68,64,68z"/>
</g>
<g>
	<path fill="#000000" d="M54,73H35c-0.552,0-1-0.447-1-1s0.448-1,1-1h19c0.553,0,1,0.447,1,1S54.553,73,54,73z"/>
</g>
<g>
	<path fill="#000000" d="M64,73h-6c-0.553,0-1-0.447-1-1s0.447-1,1-1h6c0.553,0,1,0.447,1,1S64.553,73,64,73z"/>
</g>
<g>
	<circle fill="#000000" cx="21.125" cy="78.625" r="1.938"/>
</g>
<g>
	<circle fill="#000000" cx="80.125" cy="78.625" r="1.938"/>
</g>
</svg>